# xmcd CD database file
#
# Track frame offsets:
#	150
#	19612
#	42724
#	59303
#	77407
#	99504
#	123892
#	141567
#	159461
#	171600
#	190582
#	202922
#	229770
#
# Disc length: 3296 seconds
#
# Revision: 0
# Processed by: cddbd v1.5.2PL0 Copyright (c) Steve Scherf et al.
# Submitted via: CDex 1.79
#
DISCID=ab0cde0d
DTITLE=Emil Brandqvist Trio - Entering The Woods
DYEAR=2018
DGENRE=Jazz
TTITLE0=My New Bike
TTITLE1=Unbreakable
TTITLE2=From Now On
TTITLE3=Crowded Apartment
TTITLE4=When The Light Shines Through
TTITLE5=The Woods
TTITLE6=Grand Piano
TTITLE7=Butterflies
TTITLE8=Hide And Seek
TTITLE9=The Clouds Are Clearing
TTITLE10=Downhill
TTITLE11=Raindrops
TTITLE12=Epilogue
EXTD=YEAR: 2018
EXTT0=
EXTT1=
EXTT2=
EXTT3=
EXTT4=
EXTT5=
EXTT6=
EXTT7=
EXTT8=
EXTT9=
EXTT10=
EXTT11=
EXTT12=
PLAYORDER=
